name rise44.8762peak52.3436fall86.788.mot
datacolumns 19
datarows 64
range 0.000000 0.104996
endheader
time	ground_force1_vx	ground_force1_vy	ground_force1_vz	ground_force1_px	ground_force1_py	ground_force1_pz	ground_force2_vx	ground_force2_vy	ground_force2_vz	ground_force2_px	ground_force2_py	ground_force2_pz	ground_torque1_x	ground_torque1_y	ground_torque1_z	ground_torque2_x	ground_torque2_y	ground_torque2_z	
0.000000	0.000000	0.000000	0.000000	0.000000	0.000000	0.000000	-35.907126	803.375395	-56.201108	0.097641	0.000000	-0.099114	0.000000	0.000000	0.000000	0.000000	-13.214938	0.000000	
0.001664	0.000000	0.000000	0.000000	0.000000	0.000000	0.000000	-36.359293	803.048523	-56.132751	0.097098	0.000000	-0.099178	0.000000	0.000000	0.000000	0.000000	-13.263889	0.000000	
0.003334	0.000000	0.000000	0.000000	0.000000	0.000000	0.000000	-36.807956	802.725090	-56.065126	0.096534	0.000000	-0.099241	0.000000	0.000000	0.000000	0.000000	-13.311302	0.000000	
0.004997	0.000000	0.000000	0.000000	0.000000	0.000000	0.000000	-37.257746	802.394755	-55.996544	0.095951	0.000000	-0.099301	0.000000	0.000000	0.000000	0.000000	-13.358332	0.000000	
0.006665	0.000000	0.000000	0.000000	0.000000	0.000000	0.000000	-37.713950	802.046330	-55.925152	0.095348	0.000000	-0.099360	0.000000	0.000000	0.000000	0.000000	-13.406250	0.000000	
0.008330	0.000000	0.000000	0.000000	0.000000	0.000000	0.000000	-38.182106	801.668333	-55.849033	0.094726	0.000000	-0.099415	0.000000	0.000000	0.000000	0.000000	-13.456354	0.000000	
0.009996	0.000000	0.000000	0.000000	0.000000	0.000000	0.000000	-38.667648	801.249498	-55.766288	0.094086	0.000000	-0.099468	0.000000	0.000000	0.000000	0.000000	-13.509893	0.000000	
0.011670	0.000000	0.000000	0.000000	0.000000	0.000000	0.000000	-39.175591	800.779178	-55.675113	0.093428	0.000000	-0.099518	0.000000	0.000000	0.000000	0.000000	-13.567997	0.000000	
0.013333	0.000000	0.000000	0.000000	0.000000	0.000000	0.000000	-39.710295	800.247655	-55.573855	0.092752	0.000000	-0.099564	0.000000	0.000000	0.000000	0.000000	-13.631634	0.000000	
0.015002	0.000000	0.000000	0.000000	0.000000	0.000000	0.000000	-40.275302	799.646325	-55.461040	0.092061	0.000000	-0.099606	0.000000	0.000000	0.000000	0.000000	-13.701567	0.000000	
0.016663	0.000000	0.000000	0.000000	0.000000	0.000000	0.000000	-40.873247	798.967785	-55.335399	0.091353	0.000000	-0.099645	0.000000	0.000000	0.000000	0.000000	-13.778349	0.000000	
0.018332	0.000000	0.000000	0.000000	0.000000	0.000000	0.000000	-41.505842	798.205816	-55.195865	0.090631	0.000000	-0.099679	0.000000	0.000000	0.000000	0.000000	-13.862311	0.000000	
0.020000	-2.053648	3.747700	-0.856976	0.000000	0.000000	0.000000	-42.173916	797.355292	-55.041561	0.089894	0.000000	-0.099709	0.000000	-0.208750	0.000000	0.000000	-13.953583	0.000000	
0.021663	-3.328759	7.041083	-1.553435	0.000000	0.000000	0.000000	-42.877501	796.412030	-54.871779	0.089145	0.000000	-0.099734	0.000000	-0.397786	0.000000	0.000000	-14.052113	0.000000	
0.023335	-4.779682	10.997960	-2.377416	0.000000	0.000000	0.000000	-43.615952	795.372604	-54.685947	0.088382	0.000000	-0.099755	0.000000	-0.624424	0.000000	0.000000	-14.157691	0.000000	
0.024999	-6.364930	15.570806	-3.314077	0.000000	0.000000	0.000000	-44.388079	794.234141	-54.483603	0.087609	0.000000	-0.099770	0.000000	-0.885425	0.000000	0.000000	-14.269987	0.000000	
0.026666	-8.031948	20.682458	-4.341833	0.000000	0.000000	0.000000	-45.192287	792.994120	-54.264359	0.086825	0.000000	-0.099780	0.000000	-1.175675	0.000000	0.000000	-14.388582	0.000000	
0.028341	-9.720550	26.231968	-5.433715	0.212820	0.000000	0.091420	-46.026712	791.650190	-54.027873	0.086031	0.000000	-0.099784	0.000000	-1.756259	0.000000	0.000000	-14.512995	0.000000	
0.030001	-11.367312	32.103090	-6.559310	0.222235	0.000000	0.089982	-46.889330	790.200005	-53.773820	0.085229	0.000000	-0.099783	0.000000	-2.251043	0.000000	0.000000	-14.642716	0.000000	
0.031661	-12.910359	38.174302	-7.687024	0.230852	0.000000	0.088798	-47.778064	788.641110	-53.501880	0.084420	0.000000	-0.099775	0.000000	-2.778651	0.000000	0.000000	-14.777220	0.000000	
0.033336	-14.293881	44.328921	-8.786372	0.238768	0.000000	0.087829	-48.690850	786.970842	-53.211717	0.083604	0.000000	-0.099762	0.000000	-3.325821	0.000000	0.000000	-14.915994	0.000000	
0.034999	-15.471823	50.463972	-9.829986	0.246069	0.000000	0.087043	-49.625691	785.186288	-52.902974	0.082782	0.000000	-0.099742	0.000000	-3.879353	0.000000	0.000000	-15.058539	0.000000	
0.036669	-16.410371	56.496876	-10.795146	0.252826	0.000000	0.086416	-50.580683	783.284257	-52.575271	0.081957	0.000000	-0.099715	0.000000	-4.426979	0.000000	0.000000	-15.204380	0.000000	
0.038330	-17.089115	62.369516	-11.664738	0.259099	0.000000	0.085923	-51.554021	781.261297	-52.228208	0.081128	0.000000	-0.099682	0.000000	-4.958045	0.000000	0.000000	-15.353070	0.000000	
0.040003	-17.500950	68.049639	-12.427608	0.264940	0.000000	0.085546	-52.543993	779.113727	-51.861371	0.080297	0.000000	-0.099642	0.000000	-5.463957	0.000000	0.000000	-15.504182	0.000000	
0.041661	-17.650908	73.529894	-13.078401	0.270395	0.000000	0.085269	-53.548952	776.837679	-51.474341	0.079465	0.000000	-0.099595	0.000000	-5.938382	0.000000	0.000000	-15.657310	0.000000	
0.043344	-17.554208	78.824959	-13.616964	0.275503	0.000000	0.085077	-54.567295	774.429163	-51.066705	0.078634	0.000000	-0.099541	0.000000	-6.377239	0.000000	0.000000	-15.812059	0.000000	
0.044997	-17.233792	83.967334	-14.047442	0.280296	0.000000	0.084958	-55.597421	771.884127	-50.638070	0.077803	0.000000	-0.099480	0.000000	-6.778509	0.000000	0.000000	-15.968037	0.000000	
0.046662	-16.717669	89.002384	-14.377196	0.284803	0.000000	0.084903	-56.637707	769.198514	-50.188068	0.076974	0.000000	-0.099411	0.000000	-7.141917	0.000000	0.000000	-16.124851	0.000000	
0.048328	-16.036296	93.983156	-14.615667	0.289051	0.000000	0.084902	-57.686469	766.368325	-49.716375	0.076148	0.000000	-0.099336	0.000000	-7.468531	0.000000	0.000000	-16.282099	0.000000	
0.050002	-15.220214	98.965453	-14.773280	0.293060	0.000000	0.084948	-58.741943	763.389661	-49.222714	0.075327	0.000000	-0.099252	0.000000	-7.760343	0.000000	0.000000	-16.439362	0.000000	
0.051664	-14.298073	104.003489	-14.860466	0.296850	0.000000	0.085034	-59.802262	760.258765	-48.706863	0.074511	0.000000	-0.099162	0.000000	-8.019845	0.000000	0.000000	-16.596204	0.000000	
0.053330	-13.295149	109.146394	-14.886875	0.300438	0.000000	0.085154	-60.865444	756.972050	-48.168664	0.073700	0.000000	-0.099063	0.000000	-8.249659	0.000000	0.000000	-16.752167	0.000000	
0.054995	-12.232358	114.435660	-14.860785	0.303838	0.000000	0.085303	-61.929384	753.526122	-47.608025	0.072897	0.000000	-0.098958	0.000000	-8.452230	0.000000	0.000000	-16.906770	0.000000	
0.056669	-11.125785	119.903579	-14.788730	0.307064	0.000000	0.085477	-62.991862	749.917785	-47.024922	0.072102	0.000000	-0.098844	0.000000	-8.629597	0.000000	0.000000	-17.059513	0.000000	
0.058328	-9.986634	125.572609	-14.675336	0.310125	0.000000	0.085672	-64.050537	746.144054	-46.419401	0.071315	0.000000	-0.098723	0.000000	-8.783246	0.000000	0.000000	-17.209873	0.000000	
0.059996	-8.821564	131.455536	-14.523336	0.313034	0.000000	0.085885	-65.102968	742.202146	-45.791576	0.070538	0.000000	-0.098595	0.000000	-8.914040	0.000000	0.000000	-17.357310	0.000000	
0.061666	-7.633290	137.556293	-14.333728	0.315797	0.000000	0.086112	-66.146622	738.089484	-45.141632	0.069770	0.000000	-0.098458	0.000000	-9.022220	0.000000	0.000000	-17.501273	0.000000	
0.063330	-6.421359	143.871233	-14.106039	0.318422	0.000000	0.086351	-67.178892	733.803683	-44.469817	0.069014	0.000000	-0.098315	0.000000	-9.107461	0.000000	0.000000	-17.641198	0.000000	
0.065001	-5.183021	150.390696	-13.838667	0.320918	0.000000	0.086600	-68.197110	729.342554	-43.776447	0.068269	0.000000	-0.098163	0.000000	-9.168966	0.000000	0.000000	-17.776515	0.000000	
0.066666	-3.914106	157.100688	-13.529237	0.323288	0.000000	0.086857	-69.198568	724.704089	-43.061900	0.067537	0.000000	-0.098004	0.000000	-9.205595	0.000000	0.000000	-17.906654	0.000000	
0.068331	-2.609830	163.984529	-13.174963	0.325538	0.000000	0.087121	-70.180530	719.886470	-42.326614	0.066817	0.000000	-0.097838	0.000000	-9.215992	0.000000	0.000000	-18.031046	0.000000	
0.069997	-1.265506	171.024356	-12.772984	0.327674	0.000000	0.087388	-71.140249	714.888059	-41.571085	0.066110	0.000000	-0.097665	0.000000	-9.198721	0.000000	0.000000	-18.149125	0.000000	
0.071660	0.122893	178.202401	-12.320638	0.329698	0.000000	0.087659	-72.074978	709.707410	-40.795868	0.065417	0.000000	-0.097484	0.000000	-9.152387	0.000000	0.000000	-18.260335	0.000000	
0.073330	1.558327	185.501984	-11.815694	0.331615	0.000000	0.087932	-72.981984	704.343271	-40.001573	0.064737	0.000000	-0.097295	0.000000	-9.075742	0.000000	0.000000	-18.364130	0.000000	
0.075003	3.042437	192.908222	-11.256504	0.333428	0.000000	0.088206	-73.858552	698.794596	-39.188862	0.064072	0.000000	-0.097100	0.000000	-8.967760	0.000000	0.000000	-18.459977	0.000000	
0.076664	4.575435	200.408443	-10.642096	0.335138	0.000000	0.088480	-74.702002	693.060553	-38.358452	0.063421	0.000000	-0.096898	0.000000	-8.827697	0.000000	0.000000	-18.547358	0.000000	
0.078335	6.156121	207.992335	-9.972216	0.336750	0.000000	0.088754	-75.509685	687.140539	-37.511110	0.062784	0.000000	-0.096689	0.000000	-8.655121	0.000000	0.000000	-18.625769	0.000000	
0.079997	7.781999	215.651883	-9.247302	0.338265	0.000000	0.089026	-76.278997	681.034194	-36.647653	0.062162	0.000000	-0.096473	0.000000	-8.449924	0.000000	0.000000	-18.694727	0.000000	
0.081663	9.449468	223.381135	-8.468441	0.339684	0.000000	0.089295	-77.007380	674.741410	-35.768950	0.061555	0.000000	-0.096250	0.000000	-8.212311	0.000000	0.000000	-18.753763	0.000000	
0.083330	11.154048	231.175850	-7.637276	0.341010	0.000000	0.089563	-77.692330	668.262350	-34.875915	0.060962	0.000000	-0.096021	0.000000	-7.942779	0.000000	0.000000	-18.802431	0.000000	
0.084994	12.890632	239.033079	-6.755917	0.342244	0.000000	0.089827	-78.331398	661.597450	-33.969508	0.060383	0.000000	-0.095786	0.000000	-7.642082	0.000000	0.000000	-18.840303	0.000000	
0.086668	14.653731	246.950734	-5.826828	0.343388	0.000000	0.090087	-78.922197	654.747434	-33.050737	0.059819	0.000000	-0.095544	0.000000	-7.311194	0.000000	0.000000	-18.866973	0.000000	
0.088333	16.437704	254.927168	-4.852729	0.344443	0.000000	0.090344	-79.462407	647.713316	-32.120652	0.059268	0.000000	-0.095296	0.000000	-6.951268	0.000000	0.000000	-18.882057	0.000000	
0.090001	18.236943	262.960807	-3.836501	0.345409	0.000000	0.090596	-79.949784	640.496406	-31.180344	0.058731	0.000000	-0.095042	0.000000	-6.563595	0.000000	0.000000	-18.885196	0.000000	
0.091661	20.046030	271.049854	-2.781106	0.346288	0.000000	0.090844	-80.382159	633.098307	-30.230945	0.058207	0.000000	-0.094783	0.000000	-6.149569	0.000000	0.000000	-18.876052	0.000000	
0.093330	21.859848	279.192061	-1.689524	0.347082	0.000000	0.091087	-80.757456	625.520918	-29.273624	0.057696	0.000000	-0.094518	0.000000	-5.710658	0.000000	0.000000	-18.854318	0.000000	
0.094996	23.673644	287.384591	-0.564708	0.347790	0.000000	0.091325	-81.073689	617.766430	-28.309586	0.057197	0.000000	-0.094247	0.000000	-5.248375	0.000000	0.000000	-18.819710	0.000000	
0.096669	25.483064	295.623957	0.590450	0.348414	0.000000	0.091558	-81.328979	609.837321	-27.340068	0.056709	0.000000	-0.093972	0.000000	-4.764265	0.000000	0.000000	-18.771976	0.000000	
0.098335	27.284147	303.906016	1.773131	0.348955	0.000000	0.091786	-81.521558	601.736356	-26.366337	0.056232	0.000000	-0.093691	0.000000	-4.259887	0.000000	0.000000	-18.710894	0.000000	
0.099998	29.073302	312.226036	2.980592	0.349414	0.000000	0.092009	-81.649781	593.466582	-25.389689	0.055764	0.000000	-0.093405	0.000000	-3.736812	0.000000	0.000000	-18.636273	0.000000	
0.101666	30.847260	320.578786	4.210161	0.349792	0.000000	0.092225	-81.712132	585.031333	-24.411441	0.055306	0.000000	-0.093115	0.000000	-3.196613	0.000000	0.000000	-18.547957	0.000000	
0.103327	32.603029	328.958662	5.459226	0.350089	0.000000	0.092437	-81.707238	576.434232	-23.432930	0.054856	0.000000	-0.092820	0.000000	-2.640873	0.000000	0.000000	-18.445824	0.000000	
0.104996	34.337831	337.359822	6.725217	0.350307	0.000000	0.092642	-81.633871	567.679198	-22.455508	0.054414	0.000000	-0.092521	0.000000	-2.071176	0.000000	0.000000	-18.329791	0.000000	
